<?xml version="1.0" encoding="UTF-8" standalone="no"?><svg version="1.1" id="Layer_1" xmlns="http://www.w3.org/2000/svg" xmlns:xlink="http://www.w3.org/1999/xlink" x="0px" y="0px" viewBox="0 0 135 42" style="enable-background:new 0 0 135 42;" xml:space="preserve"><style type="text/css">.st0{fill:#FFFFFF;}.st1{fill:#E30613;}</style><g><path class="st0" d="M10.2,13.4H6.7V21c0,0.6-0.2,0.8-0.8,0.8H1.5c-0.6,0-0.9-0.1-0.9-0.8V2.2c0-0.5,0.2-0.7,0.7-0.8h4.5	c0.4,0,0.9,0.1,0.9,0.8v7.2h3.5V2.2c0-0.5,0.1-0.8,0.7-0.8h4.4c0.6,0,0.8,0.1,0.8,0.7v18.8c0,0.6-0.2,0.8-0.8,0.8h-4.6	c-0.7,0-0.7-0.2-0.7-0.8L10.2,13.4L10.2,13.4z"/><path class="st0" d="M27.2,22.3c-5.2,0-8.5-4.2-8.5-10.7c0.1-6.8,3.8-10.6,8.7-10.6c4.7,0,8.2,3.6,8.5,10.2	C36.2,19,31.7,22.3,27.2,22.3z M29.1,6.5C28.9,6.1,28.5,5,27.3,5c-1.1,0-2.3,0.7-2.3,6.4c0,3.7,0.5,6.7,2.5,6.7	c1.4,0,1.8-1.7,1.9-2c0.4-1.5,0.4-3.1,0.4-4.8C29.6,9.6,29.6,8,29.1,6.5z"/><path class="st0" d="M46.5,5.5v15.4c0,0.6-0.2,0.9-0.8,0.9h-4.4c-0.7,0-0.9-0.2-0.9-0.9V5.5h-3c-0.7,0-0.9-0.2-0.9-0.9V2.2	c0-0.7,0.4-0.8,0.9-0.8h12.1c0.5,0,0.8,0.1,0.8,0.7v2.5c0,0.3,0,0.8-0.7,0.8L46.5,5.5L46.5,5.5z"/><path class="st0" d="M57.5,13.4v4.2h5.1c0.5,0,0.9,0.1,0.9,0.8V21c0,0.6-0.2,0.8-0.9,0.8H52.4c-0.7,0-0.9-0.2-0.9-0.9V2.4	c0-0.7,0.2-0.9,0.9-0.9h10.2c0.5,0,0.9,0,0.9,0.7v2.5c0,0.7-0.3,0.8-0.9,0.8h-5.1v3.9h4.2c0.6,0,0.9,0.1,0.9,0.7v2.5	c0,0.7-0.3,0.8-0.9,0.8h-4.2V13.4z"/><path class="st0" d="M72.5,17.6h4.4c0.4,0,0.7,0,0.7,0.6v2.8c0,0.6-0.4,0.7-0.7,0.7h-9.6c-0.6,0-0.7-0.1-0.8-0.7V2.2	c0-0.7,0.4-0.7,0.7-0.7h4.5c0.4,0,0.7,0.1,0.8,0.7V17.6z"/><path class="st0" d="M88.7,13v8.1c0,0.6-0.4,0.6-0.7,0.6h-4.7c-0.5,0-0.8-0.1-0.8-0.7v-8.3L78.1,2.6C78,2.3,77.9,2.1,77.9,2	c0-0.4,0.4-0.6,0.7-0.5h5c0.6,0,0.8,0.1,1,0.7l1.7,5.2l2-5.2c0.2-0.6,0.4-0.9,1-0.8h3.2c0.3,0,0.7,0,0.7,0.4c0,0.2-0.1,0.4-0.2,0.6	L88.7,13z"/><path class="st0" d="M103.9,10.6c-1.6,0-3,1.5-3,4.4c0,3.4,1.7,5.3,3.8,5.3c1.1,0,1.9-0.6,2.1-0.7c0.4-0.2,0.4-0.3,0.7-0.3	c0.3,0,0.6,0.2,0.6,0.6c0,0.7-1.4,2.3-3.9,2.3c-3.9,0-5.7-3.1-5.7-6.5c0-3.5,2-6.4,5.7-6.4c2.5,0,4.1,1.5,4.1,2.5c0,0.6-0.5,1-1,1	c-0.4,0-0.7-0.2-0.9-0.6C105.7,11.4,105.1,10.6,103.9,10.6z"/><path class="st0" d="M111.9,20.2h4.5c0.2,0,0.4,0,0.4,0.3v1c0,0.3-0.1,0.3-0.4,0.3h-7.2c-0.2,0-0.4,0-0.4-0.2c0-0.1,0-0.1,0.1-0.3	l4.9-10.3h-4.2c-0.3,0-0.3-0.1-0.3-0.4V9.8c0-0.2,0.1-0.3,0.4-0.3h6.9c0.2,0,0.3,0.1,0.3,0.2c0,0.1-0.1,0.2-0.1,0.3L111.9,20.2z"/></g><g><polygon class="st0" points="108,28.4 107.3,32.7 103,32.3 102.8,33.1 106.7,35 105,39.1 105.6,39.5 108.7,36.4 111.9,39.3 	112.5,38.8 110.6,34.9 114.3,32.7 114.1,32 109.8,32.7 108.8,28.4 	"/><path class="st0" d="M91.8,31.3L88.1,39l1.2,0.9l6.3-5.8l6.1,5.9l1.2-0.9l-3.5-7.8l7.5-4l-0.5-1.4l-8.6,0.9l-1.5-8.5h-1.5l-1.7,8.1	c-25-10.2-54-7.5-76.9,8.1C39.4,21.2,67.7,20.1,91.8,31.3z"/><path class="st0" d="M114.6,34.3l-0.3,0.2l1,1.9l-1.9,1.2l0.1,0.3l2.2-0.4l0.6,2.1l0.4-0.1l0.2-2.1h0.1c6.3,2,13.3,0.6,18.3-3.8	c-5.1,3.8-11.8,4.8-17.8,2.7l-0.2-0.1l0.8-2l-0.3-0.2l-1.5,1.6L114.6,34.3z"/></g><g><polygon class="st1" points="107.6,29.5 106.9,33.8 102.7,33.4 102.4,34.2 106.4,36.1 104.6,40.2 105.3,40.6 108.3,37.5 	111.6,40.4 112.2,39.9 110.2,36 114,33.8 113.7,33.1 109.4,33.8 108.4,29.5 	"/><path class="st1" d="M91.4,32.4l-3.7,7.7l1.2,0.9l6.3-5.8l6.1,5.9l1.2-0.9l-3.5-7.8l7.5-4l-0.5-1.4l-8.5,1l-1.5-8.5h-1.5l-1.7,8.1	c-25.1-10.3-54.2-7.6-77,8C39.1,22.3,67.4,21.2,91.4,32.4z"/><path class="st1" d="M114.2,35.4l-0.3,0.2l1,1.9l-1.9,1.2l0.1,0.3l2.2-0.4l0.6,2.1l0.4-0.1l0.3-2h0.1c6.3,2,13.3,0.6,18.3-3.8	c-5.1,3.8-11.8,4.8-17.8,2.7l-0.2-0.1l0.8-2l-0.3-0.2l-1.5,1.6L114.2,35.4z"/></g></svg>