<?xml version="1.0" encoding="UTF-8" standalone="no"?><svg xmlns:dc="http://purl.org/dc/elements/1.1/" xmlns:cc="http://creativecommons.org/ns#" xmlns:rdf="http://www.w3.org/1999/02/22-rdf-syntax-ns#" xmlns:svg="http://www.w3.org/2000/svg" xmlns="http://www.w3.org/2000/svg" xmlns:sodipodi="http://sodipodi.sourceforge.net/DTD/sodipodi-0.dtd" xmlns:inkscape="http://www.inkscape.org/namespaces/inkscape" width="163" height="31" id="svg2" version="1.1" inkscape:version="0.91 r13725" sodipodi:docname="headerlogo-ro.svg"><sodipodi:namedview pagecolor="#ffffff" bordercolor="#666666" borderopacity="1" objecttolerance="10" gridtolerance="10" guidetolerance="10" inkscape:pageopacity="0" inkscape:pageshadow="2" inkscape:window-width="1536" inkscape:window-height="801" id="namedview23" showgrid="false" inkscape:zoom="1.7394286" inkscape:cx="13.222733" inkscape:cy="15.5" inkscape:window-x="-8" inkscape:window-y="-8" inkscape:window-maximized="1" inkscape:current-layer="svg2" /><defs id="defs4" /><metadata id="metadata7"><rdf:RDF><cc:Work rdf:about=""><dc:format>image/svg+xml</dc:format><dc:type rdf:resource="http://purl.org/dc/dcmitype/StillImage" /><dc:title></dc:title></cc:Work></rdf:RDF></metadata><g id="layer1" transform="matrix(0.31973008,0,0,0.31973008,-38.285426,-34.471213)"><g transform="matrix(4.6243762,0,0,4.6243762,791.22197,-2078.3711)" id="g2389"><g id="g3047"><g transform="matrix(1.2660472,0,0,1.2660472,45.749397,-127.14893)" id="g2865"><g style="font-style:italic;font-variant:normal;font-weight:bold;font-stretch:normal;font-size:16.15953827px;line-height:125%;font-family:'Myriad Pro Light';-inkscape-font-specification:'Myriad Pro Light, Bold Italic';text-align:start;writing-mode:lr-tb;text-anchor:start;fill:#d20000;fill-opacity:1;stroke:none" id="text2399"><path d="m -135.7863,479.71857 c -2.68249,0 -4.54083,2.31082 -4.54083,4.97714 0,1.87451 1.22812,3.24807 3.21575,3.24807 2.68248,0 4.55698,-2.29466 4.55698,-4.96098 0,-1.74523 -1.115,-3.26423 -3.2319,-3.26423 z m -0.22624,1.45436 c 1.14733,0 1.50284,1.00189 1.50284,1.80987 0,1.56747 -0.93725,3.50662 -2.34313,3.50662 -0.95342,0 -1.53516,-0.7595 -1.53516,-1.84219 0,-1.47052 0.87262,-3.4743 2.37545,-3.4743 z" id="path4143" inkscape:connector-curvature="0" /><path d="m -129.69466,478.44197 -0.27471,1.45436 -1.06653,0 -0.27472,1.45436 1.06653,0 -0.6787,3.50661 c -0.12927,0.58175 -0.17775,1.01806 -0.17775,1.45436 0,0.90494 0.58174,1.63212 1.8745,1.63212 0.45247,0 0.95342,-0.0646 1.22813,-0.1616 l 0.17775,-1.48668 c -0.19391,0.0323 -0.42014,0.0485 -0.64638,0.0485 -0.50094,0 -0.69486,-0.27471 -0.69486,-0.71102 0,-0.32319 0.0646,-0.74334 0.12928,-1.09885 l 0.63022,-3.18342 1.76139,0 0.29087,-1.45436 -1.77755,0 0.38783,-2.01995 -1.9553,0.56559 z" id="path4145" inkscape:connector-curvature="0" /><path d="m -120.44939,485.93999 c -0.56558,0.29088 -1.2766,0.51711 -2.16537,0.51711 -0.74334,0 -1.30893,-0.27471 -1.61596,-0.80798 -0.17775,-0.30703 -0.24239,-0.84029 -0.21007,-1.11501 3.03799,0.0646 5.15489,-0.58174 5.15489,-2.60168 0,-1.30892 -0.98573,-2.21386 -2.53705,-2.21386 -2.7148,0 -4.46003,2.58553 -4.46003,4.96098 0,1.92298 1.05037,3.26423 3.23191,3.26423 0.95341,0 2.00378,-0.22624 2.77944,-0.63023 l -0.17776,-1.37356 z m -0.61406,-3.9914 c 0,0.93725 -1.24428,1.21196 -3.18343,1.17964 0.22624,-0.95341 1.00189,-2.00378 2.18154,-2.00378 0.5979,0 1.00189,0.30703 1.00189,0.80798 l 0,0.0162 z" id="path4147" inkscape:connector-curvature="0" /><path d="m -116.82132,487.76602 2.18154,-11.47327 -1.87451,0 -2.19769,11.47327 1.89066,0 z" id="path4149" inkscape:connector-curvature="0" /><path d="m -105.04026,481.78699 -3.74901,0 -0.30703,1.519 1.92298,0 -0.5171,2.73096 c -0.32319,0.12928 -0.80798,0.24239 -1.38972,0.24239 -2.0361,0 -3.10263,-1.13116 -3.10263,-3.08647 0,-1.48668 0.61406,-2.89255 1.59979,-3.73285 0.80798,-0.69486 1.87451,-1.08269 3.03799,-1.08269 0.98574,0 1.79371,0.21007 2.31082,0.46863 l 0.58174,-1.58364 c -0.38783,-0.21007 -1.37356,-0.50094 -2.74712,-0.50094 -1.82603,0 -3.45814,0.58174 -4.65395,1.59979 -1.40588,1.21197 -2.18153,3.03799 -2.18153,4.97714 0,1.24428 0.38782,2.44009 1.24428,3.26422 0.85646,0.85646 2.08458,1.27661 3.58742,1.27661 1.34124,0 2.58552,-0.33935 3.32886,-0.5979 l 1.03421,-5.49425 z" id="path4151" inkscape:connector-curvature="0" /><path d="m -97.923746,479.89633 -0.72718,3.82981 c -0.307031,1.63211 -1.325082,2.66632 -2.197694,2.66632 -0.74334,0 -1.00189,-0.46863 -1.00189,-1.11501 0,-0.30703 0.0485,-0.69486 0.12927,-1.08269 l 0.80798,-4.29843 -1.87451,0 -0.84029,4.41155 c -0.11312,0.53327 -0.1616,0.98573 -0.1616,1.40588 0,1.61595 0.90494,2.23002 2.05226,2.23002 0.98573,0 1.971466,-0.53327 2.730964,-1.55132 l 0.03232,0 -0.161596,1.37356 1.664433,0 c 0.09696,-0.6787 0.210074,-1.50284 0.387829,-2.44009 l 1.03421,-5.4296 -1.874506,0 z" id="path4153" inkscape:connector-curvature="0" /><path d="m -93.513454,487.76602 0.597903,-3.16727 c 0.307031,-1.68059 1.163487,-3.03799 2.504728,-3.03799 0.129277,0 0.258553,0.0162 0.35551,0.0323 l 0.37167,-1.84219 c -0.129277,-0.0162 -0.274712,-0.0323 -0.403989,-0.0323 -1.082689,0 -1.939144,0.77566 -2.472409,1.84219 l -0.04848,0 c 0.0808,-0.58174 0.129277,-1.13117 0.177755,-1.66443 l -1.632113,0 c -0.09696,0.71102 -0.193915,1.90682 -0.403989,3.02183 l -0.921093,4.84786 1.874506,0 z" id="path4155" inkscape:connector-curvature="0" /><path d="m -83.500098,479.89633 -0.727179,3.82981 c -0.307031,1.63211 -1.325082,2.66632 -2.197697,2.66632 -0.743339,0 -1.001891,-0.46863 -1.001891,-1.11501 0,-0.30703 0.04848,-0.69486 0.129276,-1.08269 l 0.807977,-4.29843 -1.874507,0 -0.840296,4.41155 c -0.113116,0.53327 -0.161595,0.98573 -0.161595,1.40588 0,1.61595 0.904934,2.23002 2.052261,2.23002 0.985732,0 1.971464,-0.53327 2.730962,-1.55132 l 0.03232,0 -0.161595,1.37356 1.664432,0 c 0.09696,-0.6787 0.210074,-1.50284 0.387829,-2.44009 l 1.034211,-5.4296 -1.874507,0 z" id="path4157" inkscape:connector-curvature="0" /><path d="m -80.00711,487.92762 c 0.775658,0 1.341242,-0.58175 1.341242,-1.3574 0,-0.71102 -0.468627,-1.19581 -1.147327,-1.19581 -0.775658,0 -1.325082,0.63022 -1.325082,1.38972 0,0.66254 0.452467,1.16349 1.115008,1.16349 l 0.01616,0 z" id="path4159" inkscape:connector-curvature="0" /><path d="m -75.397098,487.76602 0.597903,-3.16727 c 0.307031,-1.68059 1.163487,-3.03799 2.504728,-3.03799 0.129277,0 0.258553,0.0162 0.35551,0.0323 l 0.37167,-1.84219 c -0.129277,-0.0162 -0.274713,-0.0323 -0.403989,-0.0323 -1.082689,0 -1.939145,0.77566 -2.472409,1.84219 l -0.04848,0 c 0.0808,-0.58174 0.129276,-1.13117 0.177755,-1.66443 l -1.632113,0 c -0.09696,0.71102 -0.193915,1.90682 -0.403989,3.02183 l -0.921093,4.84786 1.874506,0 z" id="path4161" inkscape:connector-curvature="0" /><path d="m -66.98202,479.71857 c -2.682483,0 -4.54083,2.31082 -4.54083,4.97714 0,1.87451 1.228125,3.24807 3.215748,3.24807 2.682484,0 4.55699,-2.29466 4.55699,-4.96098 0,-1.74523 -1.115008,-3.26423 -3.231908,-3.26423 z m -0.226233,1.45436 c 1.147327,0 1.502837,1.00189 1.502837,1.80987 0,1.56747 -0.937253,3.50662 -2.343133,3.50662 -0.953413,0 -1.535156,-0.7595 -1.535156,-1.84219 0,-1.47052 0.872615,-3.4743 2.375452,-3.4743 z" id="path4163" inkscape:connector-curvature="0" /></g><g style="font-style:italic;font-variant:normal;font-weight:bold;font-stretch:normal;font-size:16.15953827px;line-height:125%;font-family:'Myriad Pro Light';-inkscape-font-specification:'Myriad Pro Light, Bold Italic';text-align:start;writing-mode:lr-tb;text-anchor:start;fill:#d20000;fill-opacity:1;stroke:none" id="text2403"><path d="m -148.75821,476.87449 -2.06842,10.89153 1.8745,0 0.90494,-4.81554 4.44387,0 -0.92109,4.81554 1.89066,0 2.06842,-10.89153 -1.89066,0 -0.8403,4.3954 -4.42771,0 0.84029,-4.3954 -1.8745,0 z" id="path4166" inkscape:connector-curvature="0" /></g></g></g></g></g></svg>