<?xml version="1.0" encoding="UTF-8" standalone="no"?><svg version="1.1" id="svg2" inkscape:version="0.91 r13725" sodipodi:docname="headerlogo-at.svg" xmlns:cc="http://creativecommons.org/ns#" xmlns:dc="http://purl.org/dc/elements/1.1/" xmlns:inkscape="http://www.inkscape.org/namespaces/inkscape" xmlns:rdf="http://www.w3.org/1999/02/22-rdf-syntax-ns#" xmlns:sodipodi="http://sodipodi.sourceforge.net/DTD/sodipodi-0.dtd" xmlns:svg="http://www.w3.org/2000/svg" xmlns="http://www.w3.org/2000/svg" xmlns:xlink="http://www.w3.org/1999/xlink" x="0px" y="0px" viewBox="0 0 163 31" style="enable-background:new 0 0 163 31;" xml:space="preserve"><style type="text/css">.st0{fill:#D20000;}</style><sodipodi:namedview  bordercolor="#666666" borderopacity="1" gridtolerance="10" guidetolerance="10" id="namedview20" inkscape:current-layer="svg2" inkscape:cx="69.401323" inkscape:cy="15.5" inkscape:pageopacity="0" inkscape:pageshadow="2" inkscape:window-height="801" inkscape:window-maximized="1" inkscape:window-width="1536" inkscape:window-x="-8" inkscape:window-y="-8" inkscape:zoom="1.7002558" objecttolerance="10" pagecolor="#ffffff" showgrid="false"></sodipodi:namedview><g id="layer1" transform="matrix(0.32562702,0,0,0.32562702,-45.767474,-35.839565)"><g id="g2389" transform="matrix(4.6243762,0,0,4.6243762,791.22197,-2078.3711)"><g id="g3047"><g id="g2865" transform="matrix(1.2660472,0,0,1.2660472,45.749397,-127.14893)"><g id="text2399"><path id="path4141" inkscape:connector-curvature="0" class="st0" d="M-147.3,487.8h1.9l0.9-4.5h0.9c1,0,1.5,0.5,1.6,1.9					c0.1,1.3,0.2,2.3,0.3,2.6h1.9c-0.2-0.4-0.3-1.7-0.4-3.1c-0.1-1-0.4-1.8-1.1-2.1l0,0c1.4-0.4,2.5-1.5,2.5-3.1c0-0.9-0.4-1.6-1-2					c-0.7-0.5-1.7-0.7-2.7-0.7c-1,0-2,0.1-2.7,0.3L-147.3,487.8L-147.3,487.8z M-143.6,478.4c0.2-0.1,0.5-0.1,1-0.1					c1.1,0,1.9,0.5,1.9,1.5c0,1.2-1,2.1-2.5,2.1h-1.1L-143.6,478.4L-143.6,478.4z"/><path id="path4143" inkscape:connector-curvature="0" class="st0" d="M-132.5,485.9c-0.6,0.3-1.3,0.5-2.2,0.5					c-0.7,0-1.3-0.3-1.6-0.8c-0.2-0.3-0.2-0.8-0.2-1.1c3,0.1,5.2-0.6,5.2-2.6c0-1.3-1-2.2-2.5-2.2c-2.7,0-4.5,2.6-4.5,5					c0,1.9,1.1,3.3,3.2,3.3c1,0,2-0.2,2.8-0.6L-132.5,485.9L-132.5,485.9z M-133.1,481.9c0,0.9-1.2,1.2-3.2,1.2c0.2-1,1-2,2.2-2					C-133.5,481.1-133.1,481.4-133.1,481.9L-133.1,481.9L-133.1,481.9z"/><path id="path4145" inkscape:connector-curvature="0" class="st0" d="M-130.3,479.9l1.3,7.9h1.9l4.4-7.9h-2.1l-2,4					c-0.4,0.9-0.7,1.5-0.9,2h0c0-0.5-0.1-1.1-0.2-2.1l-0.5-3.9L-130.3,479.9L-130.3,479.9z"/><path id="path4147" inkscape:connector-curvature="0" class="st0" d="M-121.1,487.8l0.9-4.7c0.3-1.6,0.5-3,0.6-4l0.1,0					c0.3,1.2,0.5,2.1,1,3.5l2,5.2h1.9l2.1-10.9h-1.8l-0.9,4.8c-0.3,1.6-0.4,2.6-0.5,3.7h0c-0.2-1.1-0.5-2.1-1-3.4l-1.9-5.1h-2.2					l-2.1,10.9L-121.1,487.8L-121.1,487.8z"/><path id="path4149" inkscape:connector-curvature="0" class="st0" d="M-102.7,481.8h-3.7l-0.3,1.5h1.9l-0.5,2.7					c-0.3,0.1-0.8,0.2-1.4,0.2c-2,0-3.1-1.1-3.1-3.1c0-1.5,0.6-2.9,1.6-3.7c0.8-0.7,1.9-1.1,3-1.1c1,0,1.8,0.2,2.3,0.5l0.6-1.6					c-0.4-0.2-1.4-0.5-2.7-0.5c-1.8,0-3.5,0.6-4.7,1.6c-1.4,1.2-2.2,3-2.2,5c0,1.2,0.4,2.4,1.2,3.3c0.9,0.9,2.1,1.3,3.6,1.3					c1.3,0,2.6-0.3,3.3-0.6L-102.7,481.8z"/><path id="path4151" inkscape:connector-curvature="0" class="st0" d="M-97.1,479.7c-2.7,0-4.5,2.3-4.5,5c0,1.9,1.2,3.2,3.2,3.2					c2.7,0,4.6-2.3,4.6-5C-93.9,481.2-95,479.7-97.1,479.7L-97.1,479.7z M-97.4,481.2c1.1,0,1.5,1,1.5,1.8c0,1.6-0.9,3.5-2.3,3.5					c-1,0-1.5-0.8-1.5-1.8C-99.7,483.2-98.9,481.2-97.4,481.2z"/><path id="path4153" inkscape:connector-curvature="0" class="st0" d="M-92.2,487.9c0.8,0,1.3-0.6,1.3-1.4					c0-0.7-0.5-1.2-1.1-1.2c-0.8,0-1.3,0.6-1.3,1.4C-93.4,487.4-92.9,487.9-92.2,487.9L-92.2,487.9z"/><path id="path4155" inkscape:connector-curvature="0" class="st0" d="M-83.9,486c-0.4,0.2-1,0.4-1.7,0.4					c-1.1,0-1.7-0.7-1.7-1.8c0-1.6,1.1-3.3,3-3.3c0.5,0,0.9,0.1,1.2,0.2l0.5-1.5c-0.3-0.1-0.9-0.3-1.6-0.3c-2.9,0-5,2.3-5,5.1					c0,1.9,1.2,3.2,3.2,3.2c1,0,1.8-0.2,2.3-0.5L-83.9,486z"/><path id="path4157" inkscape:connector-curvature="0" class="st0" d="M-78,479.7c-2.7,0-4.5,2.3-4.5,5c0,1.9,1.2,3.2,3.2,3.2					c2.7,0,4.6-2.3,4.6-5C-74.7,481.2-75.9,479.7-78,479.7L-78,479.7z M-78.2,481.2c1.1,0,1.5,1,1.5,1.8c0,1.6-0.9,3.5-2.3,3.5					c-1,0-1.5-0.8-1.5-1.8C-80.6,483.2-79.7,481.2-78.2,481.2z"/><path id="path4159" inkscape:connector-curvature="0" class="st0" d="M-72.1,487.8l0.7-3.7c0.3-1.6,1.3-2.8,2.2-2.8					c0.8,0,0.9,0.5,0.9,1.1c0,0.3,0,0.6-0.1,0.9l-0.8,4.5h1.8l0.7-3.8c0.3-1.7,1.3-2.7,2.1-2.7c0.7,0,1,0.5,1,1.1					c0,0.3-0.1,0.7-0.1,1l-0.8,4.4h1.8l0.9-4.6c0.1-0.4,0.1-1,0.1-1.3c0-1.4-0.8-2.1-1.9-2.1c-1.1,0-2.1,0.5-2.8,1.6					c-0.1-0.8-0.6-1.6-1.9-1.6c-1,0-2,0.5-2.7,1.6h0l0.2-1.4h-1.6c-0.1,0.7-0.2,1.5-0.4,2.4l-1,5.4L-72.1,487.8L-72.1,487.8z"/></g></g></g></g></g></svg>