<?xml version="1.0" encoding="UTF-8" standalone="no"?><svg version="1.1" id="svg2" xmlns:cc="http://creativecommons.org/ns#" xmlns:dc="http://purl.org/dc/elements/1.1/" xmlns:rdf="http://www.w3.org/1999/02/22-rdf-syntax-ns#" xmlns:svg="http://www.w3.org/2000/svg" xmlns="http://www.w3.org/2000/svg" xmlns:xlink="http://www.w3.org/1999/xlink" x="0px" y="0px" width="140.8px" height="32.2px" viewBox="0 0 140.8 32.2" style="enable-background:new 0 0 140.8 32.2;" xml:space="preserve"><style type="text/css">.st0{fill:#D20000;}</style><g><path class="st0" d="M0.8,24.7L5.2,1.8h4.6l4,10.6c1,2.8,1.5,4.9,2,7.2h0.1c0.1-2.2,0.4-4.5,1-7.8l1.9-10.1h3.7l-4.4,22.9h-4	L10,13.9c-1-3-1.6-4.9-2.1-7.4H7.8C7.5,8.7,7,11.6,6.4,15l-1.9,9.8L0.8,24.7L0.8,24.7z"/><path class="st0" d="M39.6,14.7c0,5.6-3.9,10.4-9.6,10.4c-4.2,0-6.8-2.9-6.8-6.8c0-5.6,3.9-10.5,9.6-10.5	C37.2,7.8,39.6,11,39.6,14.7z M27.3,18.2c0,2.3,1.2,3.9,3.2,3.9c3,0,4.9-4.1,4.9-7.4c0-1.7-0.7-3.8-3.2-3.8	C29.1,10.9,27.3,15.1,27.3,18.2z"/><path class="st0" d="M53.2,24.2c-1,0.5-2.7,1-4.8,1c-4.1,0-6.7-2.7-6.7-6.6c0-5.8,4.4-10.7,10.5-10.7c1.5,0,2.8,0.4,3.4,0.6l-1,3.1	c-0.6-0.3-1.4-0.5-2.5-0.5c-3.8,0-6.3,3.5-6.3,7c0,2.5,1.4,3.9,3.6,3.9c1.5,0,2.7-0.4,3.5-0.8L53.2,24.2z"/><path class="st0" d="M55.7,24.7l4.6-24.1h3.9l-4.6,24.1H55.7z"/><path class="st0" d="M77,23.8c-1.6,0.9-3.8,1.3-5.8,1.3c-4.6,0-6.8-2.8-6.8-6.9c0-5,3.7-10.4,9.4-10.4c3.3,0,5.3,1.9,5.3,4.7	c0,4.2-4.5,5.6-10.8,5.5c-0.1,0.6,0.1,1.7,0.4,2.3c0.6,1.1,1.8,1.7,3.4,1.7c1.9,0,3.4-0.5,4.6-1.1L77,23.8z M75.3,12.5	c0-1.1-0.9-1.7-2.1-1.7c-2.5,0-4.1,2.2-4.6,4.2C72.7,15.1,75.3,14.5,75.3,12.5L75.3,12.5z"/><path class="st0" d="M80.8,27.7c1,0.6,2.8,1,4.4,1c2.6,0,4.6-1.2,5.4-5.1l0.4-1.9h-0.1c-1.4,2-3.1,2.9-5.2,2.9	c-3.3,0-5.2-2.7-5.2-5.8c0-5.5,4-11,10.8-11c2.1,0,4.2,0.5,5.7,1.2l-2.5,13.7C94,25.9,93,28.4,91.2,30c-1.7,1.4-4.1,1.8-6.2,1.8	s-4.1-0.4-5.2-1.1L80.8,27.7z M92.8,11.3c-0.4-0.2-1.3-0.4-2.2-0.4c-3.5,0-5.9,3.7-5.9,7.3c0,1.7,0.7,3.4,2.7,3.4s3.9-2.3,4.5-5.3	L92.8,11.3z"/><path class="st0" d="M97.4,24.7l3.2-16.6h3.9l-3.2,16.6H97.4z M103.2,5.8c-1.2,0-2-0.9-2-2.1c0-1.4,1.1-2.4,2.4-2.4	c1.2,0,2.1,0.9,2.1,2.1C105.6,4.9,104.5,5.8,103.2,5.8L103.2,5.8z"/><path class="st0" d="M107.2,25.1c-1.4,0-2.3-1.1-2.3-2.4c0-1.6,1.2-2.9,2.8-2.9c1.4,0,2.4,1,2.4,2.5	C110,23.9,108.8,25.1,107.2,25.1L107.2,25.1z"/><path class="st0" d="M111.5,31.5l3.2-17.1c0.4-2,0.7-4.6,1-6.2h3.6l-0.4,2.8h0.1c1.4-2,3.5-3.1,5.6-3.1c3.6,0,5.2,2.9,5.2,6.2	c0,5.8-4,11.2-9.7,11.2c-1.5,0-2.7-0.3-3.3-0.7h-0.1l-1.3,7.1h-3.9L111.5,31.5L111.5,31.5z M117.5,21.2c0.6,0.5,1.5,0.8,2.7,0.8	c3.1,0,5.6-4.1,5.6-7.8c0-1.5-0.7-3.2-2.6-3.2c-2,0-4.2,2.3-4.9,6.2L117.5,21.2z"/><path class="st0" d="M131.5,24.7l4.6-24.1h3.9l-4.6,24.1H131.5z"/></g></svg>