<?xml version="1.0" encoding="UTF-8" standalone="no"?>
<svg
   xmlns:dc="http://purl.org/dc/elements/1.1/"
   xmlns:cc="http://creativecommons.org/ns#"
   xmlns:rdf="http://www.w3.org/1999/02/22-rdf-syntax-ns#"
   xmlns:svg="http://www.w3.org/2000/svg"
   xmlns="http://www.w3.org/2000/svg"
   xmlns:sodipodi="http://sodipodi.sourceforge.net/DTD/sodipodi-0.dtd"
   xmlns:inkscape="http://www.inkscape.org/namespaces/inkscape"
   width="163"
   height="31"
   id="svg2"
   version="1.1"
   inkscape:version="0.91 r13725"
   sodipodi:docname="headerlogo-at.svg">
  <sodipodi:namedview
     pagecolor="#ffffff"
     bordercolor="#666666"
     borderopacity="1"
     objecttolerance="10"
     gridtolerance="10"
     guidetolerance="10"
     inkscape:pageopacity="0"
     inkscape:pageshadow="2"
     inkscape:window-width="1536"
     inkscape:window-height="801"
     id="namedview20"
     showgrid="false"
     inkscape:zoom="1.7002558"
     inkscape:cx="69.401323"
     inkscape:cy="15.5"
     inkscape:window-x="-8"
     inkscape:window-y="-8"
     inkscape:window-maximized="1"
     inkscape:current-layer="svg2" />
  <defs
     id="defs4" />
  <metadata
     id="metadata7">
    <rdf:RDF>
      <cc:Work
         rdf:about="">
        <dc:format>image/svg+xml</dc:format>
        <dc:type
           rdf:resource="http://purl.org/dc/dcmitype/StillImage" />
        <dc:title></dc:title>
      </cc:Work>
    </rdf:RDF>
  </metadata>
  <g
     id="layer1"
     transform="matrix(0.32562702,0,0,0.32562702,-45.767474,-35.839565)">
    <g
       transform="matrix(4.6243762,0,0,4.6243762,791.22197,-2078.3711)"
       id="g2389">
      <g
         id="g3047">
        <g
           transform="matrix(1.2660472,0,0,1.2660472,45.749397,-127.14893)"
           id="g2865">
          <g
             style="font-style:italic;font-variant:normal;font-weight:bold;font-stretch:normal;font-size:16.15953827px;line-height:125%;font-family:'Myriad Pro Light';-inkscape-font-specification:'Myriad Pro Light, Bold Italic';text-align:start;writing-mode:lr-tb;text-anchor:start;fill:#d20000;fill-opacity:1;stroke:none"
             id="text2399">
            <path
               d="m -147.2724,487.76602 1.85834,0 0.85646,-4.49235 0.92109,0 c 1.00189,0 1.50284,0.50095 1.58364,1.89067 0.097,1.30892 0.21007,2.34313 0.29087,2.60168 l 1.93914,0 c -0.17775,-0.43631 -0.25855,-1.69675 -0.38782,-3.05415 -0.097,-1.03421 -0.40399,-1.79371 -1.11501,-2.06842 l 0.0162,-0.0485 c 1.38972,-0.42015 2.52088,-1.519 2.52088,-3.11879 0,-0.88878 -0.42014,-1.55132 -1.03421,-1.97147 -0.6787,-0.50094 -1.68059,-0.71101 -2.73096,-0.71101 -0.96957,0 -1.98762,0.0969 -2.68248,0.25855 l -2.0361,10.71377 z m 3.65205,-9.37253 c 0.22624,-0.0646 0.53327,-0.097 1.00189,-0.097 1.06653,0 1.85835,0.45247 1.85835,1.45436 0,1.17965 -0.98573,2.08458 -2.45625,2.08458 l -1.06653,0 0.66254,-3.44198 z"
               id="path4141"
               inkscape:connector-curvature="0" />
            <path
               d="m -132.4892,485.93999 c -0.56559,0.29088 -1.27661,0.51711 -2.16538,0.51711 -0.74334,0 -1.30892,-0.27471 -1.61596,-0.80798 -0.17775,-0.30703 -0.24239,-0.84029 -0.21007,-1.11501 3.03799,0.0646 5.15489,-0.58174 5.15489,-2.60168 0,-1.30892 -0.98573,-2.21386 -2.53704,-2.21386 -2.71481,0 -4.46004,2.58553 -4.46004,4.96098 0,1.92298 1.05037,3.26423 3.23191,3.26423 0.95341,0 2.00378,-0.22624 2.77944,-0.63023 l -0.17775,-1.37356 z m -0.61407,-3.9914 c 0,0.93725 -1.24428,1.21196 -3.18342,1.17964 0.22623,-0.95341 1.00189,-2.00378 2.18153,-2.00378 0.59791,0 1.00189,0.30703 1.00189,0.80798 l 0,0.0162 z"
               id="path4143"
               inkscape:connector-curvature="0" />
            <path
               d="m -130.29933,479.89633 1.34124,7.86969 1.89066,0 4.37924,-7.86969 -2.08458,0 -1.95531,3.95908 c -0.4363,0.93726 -0.66254,1.50284 -0.85645,2.00379 l -0.0485,0 c -0.0323,-0.51711 -0.12928,-1.11501 -0.22623,-2.05227 l -0.50095,-3.9106 -1.93914,0 z"
               id="path4145"
               inkscape:connector-curvature="0" />
            <path
               d="m -121.06693,487.76602 0.88877,-4.65395 c 0.29087,-1.61595 0.51711,-2.95719 0.63022,-3.9914 l 0.0646,-0.0162 c 0.25855,1.19581 0.53327,2.08458 1.03421,3.50662 l 1.95531,5.15489 1.92298,0 2.06842,-10.89153 -1.77755,0 -0.90493,4.78323 c -0.29087,1.56747 -0.42015,2.634 -0.48479,3.68437 l -0.0323,0 c -0.24239,-1.08269 -0.5171,-2.08458 -0.96957,-3.40966 l -1.92298,-5.05794 -2.16538,0 -2.06842,10.89153 1.76139,0 z"
               id="path4147"
               inkscape:connector-curvature="0" />
            <path
               d="m -102.71954,481.78699 -3.74902,0 -0.30703,1.519 1.92299,0 -0.51711,2.73096 c -0.32319,0.12928 -0.80798,0.24239 -1.38972,0.24239 -2.0361,0 -3.10263,-1.13116 -3.10263,-3.08647 0,-1.48668 0.61406,-2.89255 1.59979,-3.73285 0.80798,-0.69486 1.87451,-1.08269 3.038,-1.08269 0.98573,0 1.79371,0.21007 2.31081,0.46863 l 0.58174,-1.58364 c -0.38782,-0.21007 -1.37356,-0.50094 -2.74712,-0.50094 -1.82602,0 -3.45814,0.58174 -4.65394,1.59979 -1.40588,1.21197 -2.18154,3.03799 -2.18154,4.97714 0,1.24428 0.38783,2.44009 1.24428,3.26422 0.85646,0.85646 2.08458,1.27661 3.58742,1.27661 1.34124,0 2.58553,-0.33935 3.32887,-0.5979 l 1.03421,-5.49425 z"
               id="path4149"
               inkscape:connector-curvature="0" />
            <path
               d="m -97.138193,479.71857 c -2.682484,0 -4.540827,2.31082 -4.540827,4.97714 0,1.87451 1.22812,3.24807 3.215744,3.24807 2.682484,0 4.55699,-2.29466 4.55699,-4.96098 0,-1.74523 -1.115008,-3.26423 -3.231907,-3.26423 z m -0.226234,1.45436 c 1.147327,0 1.502837,1.00189 1.502837,1.80987 0,1.56747 -0.937253,3.50662 -2.343133,3.50662 -0.953413,0 -1.535156,-0.7595 -1.535156,-1.84219 0,-1.47052 0.872615,-3.4743 2.375452,-3.4743 z"
               id="path4151"
               inkscape:connector-curvature="0" />
            <path
               d="m -92.236297,487.92762 c 0.775658,0 1.341242,-0.58175 1.341242,-1.3574 0,-0.71102 -0.468627,-1.19581 -1.147327,-1.19581 -0.775658,0 -1.325082,0.63022 -1.325082,1.38972 0,0.66254 0.452467,1.16349 1.115008,1.16349 l 0.01616,0 z"
               id="path4153"
               inkscape:connector-curvature="0" />
            <path
               d="m -83.94191,486.03695 c -0.403989,0.17776 -0.953413,0.37167 -1.680592,0.37167 -1.05037,0 -1.729071,-0.66254 -1.729071,-1.84219 0,-1.63211 1.147327,-3.3127 2.973355,-3.3127 0.517105,0 0.888775,0.11311 1.179646,0.24239 l 0.484787,-1.47052 c -0.290872,-0.12927 -0.904935,-0.30703 -1.599795,-0.30703 -2.924876,0 -5.009457,2.32698 -5.009457,5.0741 0,1.8745 1.211966,3.15111 3.183429,3.15111 1.001892,0 1.809869,-0.22624 2.262336,-0.45247 l -0.06464,-1.45436 z"
               id="path4155"
               inkscape:connector-curvature="0" />
            <path
               d="m -77.980303,479.71857 c -2.682483,0 -4.54083,2.31082 -4.54083,4.97714 0,1.87451 1.228125,3.24807 3.215748,3.24807 2.682483,0 4.55699,-2.29466 4.55699,-4.96098 0,-1.74523 -1.115009,-3.26423 -3.231908,-3.26423 z m -0.226234,1.45436 c 1.147328,0 1.502837,1.00189 1.502837,1.80987 0,1.56747 -0.937253,3.50662 -2.343133,3.50662 -0.953412,0 -1.535156,-0.7595 -1.535156,-1.84219 0,-1.47052 0.872615,-3.4743 2.375452,-3.4743 z"
               id="path4157"
               inkscape:connector-curvature="0" />
            <path
               d="m -72.114896,487.76602 0.678701,-3.73285 c 0.290872,-1.5998 1.292763,-2.77944 2.165378,-2.77944 0.759498,0 0.937253,0.53326 0.937253,1.13117 0,0.29087 -0.03232,0.5979 -0.09696,0.92109 l -0.840296,4.46003 1.809868,0 0.71102,-3.76517 c 0.307031,-1.66443 1.260444,-2.74712 2.116899,-2.74712 0.694861,0 0.969573,0.45246 0.969573,1.11501 0,0.32319 -0.06464,0.6787 -0.113117,1.00189 l -0.824136,4.39539 1.826027,0 0.872615,-4.60547 c 0.06464,-0.42014 0.129277,-1.00189 0.129277,-1.34124 0,-1.40588 -0.840296,-2.10074 -1.922985,-2.10074 -1.082689,0.0162 -2.084581,0.53327 -2.779441,1.61596 -0.06464,-0.8403 -0.630222,-1.61596 -1.858347,-1.61596 -1.018051,0 -1.987623,0.50095 -2.730962,1.55132 l -0.01616,0 0.161595,-1.37356 -1.632113,0 c -0.0808,0.6787 -0.210074,1.50283 -0.387829,2.44009 l -1.001892,5.4296 1.826028,0 z"
               id="path4159"
               inkscape:connector-curvature="0" />
          </g>
        </g>
      </g>
    </g>
  </g>
</svg>
